<svg width="126" height="71" viewBox="0 0 126 71" fill="none" xmlns="http://www.w3.org/2000/svg">
<path d="M105.437 34.2728C105.362 39.7272 100.937 44.1252 95.4904 44.1252C90.0436 44.1252 85.5382 39.6514 85.5382 34.1313C85.5367 32.1947 86.0964 30.2995 87.1491 28.6768L83.4743 24.2789C81.2082 27.0577 79.9718 30.5396 79.9757 34.1313C79.9757 42.735 86.9226 49.711 95.4904 49.711C104.058 49.711 111 42.735 111 34.1313C111 33.8027 110.99 33.4741 110.97 33.1506L105.437 34.2728Z" fill="white"/>
<path d="M93.7184 18.6576C90.5326 19.021 87.5383 20.3707 85.1506 22.5197L88.5032 27.0187C90.0775 25.4577 92.1253 24.4687 94.3225 24.2081L93.7184 18.6576Z" fill="#EDCC2F"/>
<path d="M109.147 41.8251C108.981 42.1183 108.81 42.4014 108.629 42.6794C108.795 42.4216 108.966 42.1385 109.142 41.8251H109.147Z" fill="white"/>
<path d="M98.9688 23.9301C100.67 22.1204 101.279 19.5271 100.539 17.1714C99.4319 13.6329 95.9333 12.6623 95.7219 12.6067C95.114 14.4581 95.0303 16.4428 95.4803 18.3391C96.2454 21.4986 98.259 23.3386 98.9688 23.9301Z" fill="white"/>
<path d="M100.086 24.4961C100.363 22.2921 101.798 20.4015 103.832 19.5775C106.892 18.334 109.545 20.2044 109.701 20.3206C108.775 21.7917 107.459 22.9749 105.901 23.7379C103.303 25.0017 100.897 24.6529 100.086 24.4961Z" fill="white"/>
<path d="M106.711 31.8261C108.682 31.8261 110.28 30.2215 110.28 28.2421C110.28 26.2626 108.682 24.658 106.711 24.658C104.74 24.658 103.142 26.2626 103.142 28.2421C103.142 30.2215 104.74 31.8261 106.711 31.8261Z" fill="white"/>
<path d="M14.9453 39C11.8125 39 9.52734 38.3633 8.08984 37.0898C6.78516 35.9414 6.13281 34.2109 6.13281 31.8984C6.13281 30.5234 6.33984 29.2656 6.75391 28.125L10.1406 27.5742C9.59375 28.7695 9.32031 30.0898 9.32031 31.5352C9.32031 33.2773 9.75391 34.5273 10.6211 35.2852C11.5352 36.0977 13.0859 36.5039 15.2734 36.5039H16.9141V27.8672C18.3984 27.5625 20.0039 27.4102 21.7305 27.4102C23.7461 27.4102 25.1992 27.8828 26.0898 28.8281C26.8789 29.6719 27.2734 30.9648 27.2734 32.707V36.5039H29.2891V39H24.2031V33.0469C24.2031 31.8906 24.0078 31.0781 23.6172 30.6094C23.2266 30.1406 22.5352 29.9062 21.543 29.9062C21.0117 29.9062 20.4844 29.9531 19.9609 30.0469V39H14.9453ZM17.9219 42.5977C17.9219 43.043 17.7656 43.4258 17.4531 43.7461C17.1484 44.0664 16.7734 44.2266 16.3281 44.2266C15.8906 44.2266 15.5156 44.0703 15.2031 43.7578C14.8984 43.4453 14.7461 43.0586 14.7461 42.5977C14.7461 42.1523 14.8984 41.7695 15.2031 41.4492C15.5156 41.1289 15.8906 40.9688 16.3281 40.9688C16.7734 40.9688 17.1484 41.125 17.4531 41.4375C17.7656 41.7578 17.9219 42.1445 17.9219 42.5977ZM13.9609 42.5977C13.9609 43.0508 13.8047 43.4336 13.4922 43.7461C13.1797 44.0664 12.7969 44.2266 12.3438 44.2266C11.9062 44.2266 11.5312 44.0703 11.2188 43.7578C10.9141 43.4453 10.7617 43.0586 10.7617 42.5977C10.7617 42.1523 10.9141 41.7695 11.2188 41.4492C11.5312 41.1289 11.9062 40.9688 12.3438 40.9688C12.8047 40.9688 13.1875 41.125 13.4922 41.4375C13.8047 41.7578 13.9609 42.1445 13.9609 42.5977ZM28.9375 39V36.5039H30.3086C30.8633 36.5039 31.3086 36.5586 31.6445 36.668C30.7539 36.0195 30.3086 34.875 30.3086 33.2344C30.3086 31.6094 30.8242 30.2578 31.8555 29.1797C32.9961 28 34.5586 27.4102 36.543 27.4102C40.1602 27.4102 41.9688 29.25 41.9688 32.9297V39H28.9375ZM38.875 33.3164C38.875 31.043 38.0195 29.9062 36.3086 29.9062C35.4258 29.9062 34.7227 30.2109 34.1992 30.8203C33.6992 31.4141 33.4492 32.1875 33.4492 33.1406C33.4492 35.3828 34.6484 36.5039 37.0469 36.5039H38.875V33.3164ZM43.3516 45.0938C42.6484 45.0938 41.9766 45.0156 41.3359 44.8594L41.5703 42.3398C42.2344 42.5273 42.8828 42.6211 43.5156 42.6211C44.3828 42.6211 45.0195 42.3867 45.4258 41.918C45.8867 41.3867 46.1172 40.5039 46.1172 39.2695V27.7148H49.2812V39.0938C49.2812 43.0938 47.3047 45.0938 43.3516 45.0938ZM53.1016 22.0781H56.2656V36.5039H58.668V39H53.1016V22.0781ZM58.3047 39V36.5039H59.6758C60.2305 36.5039 60.6758 36.5586 61.0117 36.668C60.1211 36.0195 59.6758 34.875 59.6758 33.2344C59.6758 31.6094 60.1914 30.2578 61.2227 29.1797C62.3633 28 63.9258 27.4102 65.9102 27.4102C69.5273 27.4102 71.3359 29.25 71.3359 32.9297V39H58.3047ZM68.2422 33.3164C68.2422 31.043 67.3867 29.9062 65.6758 29.9062C64.793 29.9062 64.0898 30.2109 63.5664 30.8203C63.0664 31.4141 62.8164 32.1875 62.8164 33.1406C62.8164 35.3828 64.0156 36.5039 66.4141 36.5039H68.2422V33.3164ZM65.6055 25.6055C65.1445 25.6055 64.7539 25.4492 64.4336 25.1367C64.1055 24.8086 63.9414 24.4141 63.9414 23.9531C63.9414 23.5 64.1055 23.1094 64.4336 22.7812C64.7539 22.4609 65.1445 22.3008 65.6055 22.3008C66.0586 22.3008 66.4453 22.4609 66.7656 22.7812C67.0938 23.1094 67.2578 23.5 67.2578 23.9531C67.2578 24.4062 67.0938 24.7969 66.7656 25.125C66.4453 25.4453 66.0586 25.6055 65.6055 25.6055Z" fill="white"/>
</svg>
