<svg width="24" height="17" viewBox="0 0 24 17" fill="none" xmlns="http://www.w3.org/2000/svg">
<path d="M9.15856 12.479L10.2983 11.341L20.7514 0.652537C21.6414 -0.254745 22.8749 -0.206994 23.6087 0.740081C24.1239 1.41656 24.1473 2.40343 23.5775 3.04808C23.0076 3.69273 22.3362 4.36921 21.7117 5.01386L10.6574 16.323C10.0797 16.9199 9.40838 17.1746 8.6199 16.8722C8.34027 16.7604 8.08544 16.5926 7.87047 16.3788C5.4452 13.9116 3.02513 11.4365 0.610274 8.95337C-0.00645196 8.32464 -0.162585 7.48899 0.173101 6.77271C0.508787 6.05644 1.23481 5.6028 2.02328 5.68238C2.50729 5.73013 2.90543 5.96093 3.24112 6.31111L8.99462 12.2005C9.05831 12.2875 9.11324 12.3808 9.15856 12.479Z" fill="#727272"/>
</svg>
