<svg width="27" height="22" viewBox="0 0 27 22" fill="none" xmlns="http://www.w3.org/2000/svg">
<g clip-path="url(#clip0_394_1737)">
<path d="M27 5.52384C26.8679 5.99806 26.683 6.44024 26.2867 6.77348C26.0042 7.0194 25.6604 7.1895 25.2894 7.26692C25.1375 7.29256 25.0714 7.34382 25.0384 7.50403C24.3779 10.8578 23.7153 14.2115 23.0504 17.5652C23.0174 17.7446 22.9645 17.8151 22.7598 17.8151H4.22701L3.99584 17.8023L3.63919 15.9951C3.07779 13.1562 2.50978 10.3237 1.95499 7.48481C1.92857 7.33742 1.85592 7.29256 1.71722 7.26692C0.706703 7.04904 0 6.21595 0 5.24187C0.004629 4.76118 0.176893 4.29618 0.488724 3.92263C0.800554 3.54908 1.23357 3.28901 1.71722 3.18478C2.69472 2.97971 3.69203 3.47957 4.12794 4.38315C4.33016 4.81441 4.37223 5.3003 4.24701 5.75826C4.12179 6.21621 3.837 6.61796 3.44105 6.89524C3.24951 7.02981 3.26272 7.11953 3.34858 7.30537C3.87035 8.42043 4.51101 9.465 5.42906 10.3237C5.85837 10.7339 6.3339 11.0799 6.8953 11.2978C8.09075 11.7656 9.15411 11.4965 10.092 10.6954C10.6534 10.2148 11.0695 9.62521 11.4261 8.99078C12.0998 7.79241 12.5027 6.50432 12.8263 5.15215C11.9347 4.883 11.2874 4.35111 10.9638 3.49238C10.7551 2.95286 10.7435 2.36023 10.9308 1.81338C11.294 0.691915 12.4234 -0.0514578 13.6651 -0.000190717C14.8011 0.0510764 15.8777 0.929026 16.1287 2.01845C16.289 2.68178 16.1727 3.37971 15.805 3.96019C15.4748 4.48568 15.3229 4.58822 14.1539 5.1842C14.3388 5.7994 14.5039 6.44024 14.7153 7.05545C15.1314 8.26663 15.6729 9.42014 16.5778 10.375C17.2911 11.1312 18.1431 11.6054 19.2461 11.5093C19.8273 11.4644 20.3557 11.2401 20.8246 10.9197C22.2446 9.95204 23.0768 8.56783 23.7505 7.07467C23.5523 6.89524 23.3476 6.74144 23.1825 6.562C22.9139 6.25469 22.7449 5.87723 22.6967 5.47704C22.6486 5.07684 22.7233 4.67175 22.9117 4.31266C23.341 3.52442 24.1336 3.10147 24.9988 3.15915C25.4701 3.19294 25.9169 3.37628 26.2702 3.68087C26.6235 3.98546 26.8637 4.39438 26.9538 4.84455C26.9651 4.88441 26.9806 4.92306 27 4.9599V5.52384Z" fill="url(#paint0_linear_394_1737)"/>
<path d="M13.5264 18.8599H21.9606C22.6343 18.8599 23.1891 19.0649 23.5325 19.6545C23.6676 19.8799 23.7423 20.1345 23.7496 20.3951C23.7569 20.6558 23.6967 20.914 23.5744 21.1461C23.4521 21.3783 23.2718 21.577 23.0498 21.7239C22.8278 21.8708 22.5714 21.9614 22.304 21.9872C22.1987 21.9978 22.0929 22.0021 21.987 22H5.00633C4.13451 22 3.53349 21.5898 3.30893 20.8593C3.24239 20.6377 3.22766 20.4045 3.26581 20.1767C3.30397 19.9489 3.39404 19.7322 3.52947 19.5425C3.66489 19.3528 3.84226 19.1948 4.04862 19.08C4.25499 18.9652 4.48515 18.8966 4.72233 18.8791C4.85883 18.8663 4.99753 18.8599 5.13843 18.8599H13.5264Z" fill="url(#paint1_linear_394_1737)"/>
</g>
<defs>
<linearGradient id="paint0_linear_394_1737" x1="13.5" y1="-0.00268555" x2="13.5" y2="17.8151" gradientUnits="userSpaceOnUse">
<stop stop-color="#B8B8B8"/>
<stop offset="0.390625" stop-color="#737373"/>
<stop offset="1" stop-color="#B8B8B8"/>
</linearGradient>
<linearGradient id="paint1_linear_394_1737" x1="13.4976" y1="18.8599" x2="13.4976" y2="22.0005" gradientUnits="userSpaceOnUse">
<stop stop-color="#B8B8B8"/>
<stop offset="0.390625" stop-color="#737373"/>
<stop offset="1" stop-color="#B8B8B8"/>
</linearGradient>
<clipPath id="clip0_394_1737">
<rect width="27" height="22" fill="white"/>
</clipPath>
</defs>
</svg>
