<svg width="28" height="26" viewBox="0 0 28 26" fill="none" xmlns="http://www.w3.org/2000/svg">
<path d="M2.32419 19.0128V14.163C2.32419 14.0463 2.32419 13.9295 2.31489 13.8038C2.2963 13.5343 2.24052 13.4625 1.95234 13.4535C1.66416 13.4445 1.3295 13.4445 1.02273 13.4445C0.834611 13.4503 0.646648 13.4291 0.464958 13.3817C0.0373352 13.238 -0.120699 12.8787 0.102408 12.4926C0.213962 12.277 0.399885 12.1153 0.585808 11.9447L3.39324 9.33124L10.6907 2.5416L12.8939 0.48495C13.3401 0.0628431 13.8514 -0.107796 14.465 0.0718241C14.7 0.152727 14.9108 0.288467 15.0785 0.466988L18.955 4.07735L27.4238 11.9627L27.7492 12.277C27.9537 12.5015 28.0745 12.762 27.9351 13.0584C27.7956 13.3547 27.526 13.4086 27.2472 13.4356C26.9683 13.4625 26.6522 13.4356 26.364 13.4445H25.9922C25.7691 13.4445 25.6482 13.5523 25.6389 13.7768C25.6296 14.0014 25.6296 14.0463 25.6296 14.181V23.7906C25.6296 24.2397 25.5739 24.6798 25.3136 25.0749C25.0533 25.4701 24.5327 25.8832 23.9191 25.9551C23.7371 25.9763 23.554 25.9883 23.3707 25.991H17.3747C17.3394 25.9936 17.3039 25.9889 17.2706 25.9773C17.2373 25.9657 17.207 25.9474 17.1815 25.9236C17.1561 25.8999 17.1361 25.8712 17.1229 25.8395C17.1097 25.8078 17.1037 25.7737 17.1051 25.7395C17.0958 25.6228 17.0958 25.497 17.0958 25.3803V19.6774C17.0958 19.5426 17.1051 19.4079 17.0958 19.2732C17.0772 18.9409 17.0214 18.878 16.6774 18.8691C16.1662 18.8511 15.6549 18.8601 15.1436 18.8601H11.1462C10.8116 18.887 10.7465 18.9409 10.7372 19.2732C10.7279 19.8121 10.7279 20.3509 10.7279 20.8898V25.4701C10.7279 25.9551 10.7 25.991 10.2073 25.991H4.53667C3.27239 25.991 2.62166 25.2635 2.39856 24.5271C2.33665 24.2926 2.31158 24.0504 2.32419 23.8086V19.0128Z" fill="#D6D3D3"/>
</svg>
