<svg width="96" height="114" viewBox="0 0 96 114" fill="none" xmlns="http://www.w3.org/2000/svg">
<path d="M78.2843 66.7491C78.054 83.4197 64.5582 96.8613 47.9456 96.8613C31.333 96.8613 17.5916 83.188 17.5916 66.3165C17.5871 60.3976 19.2942 54.6053 22.5047 49.6459L11.2966 36.2043C4.3852 44.6974 0.614091 55.3392 0.625882 66.3165C0.625882 92.6125 21.8138 113.934 47.9456 113.934C74.0774 113.934 95.25 92.6125 95.25 66.3165C95.25 65.3123 95.2193 64.308 95.1579 63.3192L78.2843 66.7491Z" fill="#4F8640"/>
<path d="M42.5412 19.0239C32.8244 20.1345 23.6918 24.2598 16.4094 30.8278L26.6349 44.5783C31.4365 39.8075 37.6824 36.7845 44.3836 35.9881L42.5412 19.0239Z" fill="#EDCC2F"/>
<path d="M89.5999 89.8315C89.0932 90.7276 88.5712 91.5928 88.0184 92.4426C88.5251 91.6546 89.0471 90.7894 89.5845 89.8315H89.5999Z" fill="#4F8640"/>
<path d="M58.5549 35.1384C63.7444 29.6073 65.6022 21.6814 63.3452 14.4817C59.9674 3.66664 49.2967 0.700224 48.6518 0.530273C46.7976 6.18886 46.5425 12.2546 47.9149 18.0506C50.2486 27.7069 56.39 33.3308 58.5549 35.1384Z" fill="#4F8640"/>
<path d="M61.9634 36.8687C62.8078 30.1324 67.1836 24.3541 73.3864 21.8357C82.7214 18.035 90.8128 23.7515 91.2887 24.1069C88.4624 28.603 84.4487 32.2192 79.6968 34.5511C71.7743 38.4137 64.4353 37.3476 61.9634 36.8687Z" fill="#4F8640"/>
<path d="M82.1687 59.2715C88.1807 59.2715 93.0543 54.3672 93.0543 48.3174C93.0543 42.2676 88.1807 37.3633 82.1687 37.3633C76.1567 37.3633 71.283 42.2676 71.283 48.3174C71.283 54.3672 76.1567 59.2715 82.1687 59.2715Z" fill="#4F8640"/>
</svg>
