<svg width="151" height="180" viewBox="0 0 151 180" fill="none" xmlns="http://www.w3.org/2000/svg">
<path d="M123.615 105.054C123.25 131.481 101.863 152.789 75.5368 152.789C49.2109 152.789 27.4348 131.114 27.4348 104.368C27.4276 94.9853 30.1329 85.803 35.2206 77.9411L17.4592 56.6328C6.50662 70.0964 0.530553 86.9664 0.549238 104.368C0.549238 146.054 34.1258 179.853 75.5368 179.853C116.948 179.853 150.5 146.054 150.5 104.368C150.5 102.776 150.451 101.184 150.354 99.6167L123.615 105.054Z" fill="white"/>
<path d="M66.9723 29.3975C51.5741 31.158 37.1016 37.6976 25.5613 48.1096L41.7656 69.9077C49.3747 62.3446 59.2725 57.5525 69.892 56.29L66.9723 29.3975Z" fill="#EDCC2F"/>
<path d="M141.546 141.646C140.743 143.066 139.916 144.438 139.04 145.785C139.843 144.536 140.67 143.164 141.522 141.646H141.546Z" fill="white"/>
<path d="M92.3493 54.9428C100.573 46.1745 103.517 33.61 99.9405 22.1966C94.5877 5.05201 77.6778 0.349493 76.6559 0.0800781C73.7176 9.05038 73.3132 18.6661 75.488 27.8543C79.1863 43.162 88.9187 52.0772 92.3493 54.9428Z" fill="white"/>
<path d="M97.7507 57.6855C99.0889 47.0069 106.023 37.8468 115.853 33.8546C130.646 27.8295 143.468 36.8916 144.223 37.4549C139.744 44.5824 133.383 50.315 125.853 54.0117C113.298 60.1348 101.668 58.4448 97.7507 57.6855Z" fill="white"/>
<path d="M129.77 93.1998C139.297 93.1998 147.021 85.4252 147.021 75.8347C147.021 66.2443 139.297 58.4697 129.77 58.4697C120.243 58.4697 112.519 66.2443 112.519 75.8347C112.519 85.4252 120.243 93.1998 129.77 93.1998Z" fill="white"/>
</svg>
