<svg width="24" height="25" viewBox="0 0 24 25" fill="none" xmlns="http://www.w3.org/2000/svg">
<path d="M9.50684 17.4727C9.50693 15.923 9.96612 14.4074 10.8274 13.114C11.6887 11.8207 12.9142 10.8065 14.3517 10.1974C15.7893 9.58831 17.3757 9.41106 18.914 9.68766C20.4522 9.96427 21.8747 10.6826 23.0049 11.7534V2.37167C23.0049 1.74266 22.7528 1.13942 22.3041 0.694645C21.8554 0.249871 21.2468 0 20.6123 0L2.39259 0C1.75804 0 1.14947 0.249871 0.700773 0.694645C0.252076 1.13942 0 1.74266 0 2.37167L0 20.432C0 21.061 0.252076 21.6643 0.700773 22.109C1.14947 22.5538 1.75804 22.8037 2.39259 22.8037H11.603C10.2525 21.3514 9.50406 19.4478 9.50684 17.4727ZM1.8315 4.29209C1.8315 4.16127 1.88392 4.03582 1.97723 3.94332C2.07054 3.85083 2.1971 3.79886 2.32907 3.79886H18.0079C18.1399 3.79886 18.2665 3.85083 18.3598 3.94332C18.4531 4.03582 18.5055 4.16127 18.5055 4.29209V5.04766C18.5028 5.17763 18.4495 5.30153 18.3568 5.39346C18.264 5.48538 18.1391 5.5382 18.0079 5.54088H2.32907C2.19795 5.5382 2.07296 5.48538 1.98022 5.39346C1.88749 5.30153 1.8342 5.17763 1.8315 5.04766V4.29209ZM1.8315 7.52427C1.8315 7.39346 1.88392 7.268 1.97723 7.17551C2.07054 7.08301 2.1971 7.03104 2.32907 7.03104H13.5615C13.6935 7.03104 13.8201 7.08301 13.9134 7.17551C14.0067 7.268 14.0591 7.39346 14.0591 7.52427V8.26935C14.0591 8.40016 14.0067 8.52561 13.9134 8.61811C13.8201 8.71061 13.6935 8.76257 13.5615 8.76257H2.32907C2.1971 8.76257 2.07054 8.71061 1.97723 8.61811C1.88392 8.52561 1.8315 8.40016 1.8315 8.26935V7.52427ZM2.32907 11.9948C2.1971 11.9948 2.07054 11.9428 1.97723 11.8503C1.88392 11.7578 1.8315 11.6323 1.8315 11.5015V10.7564C1.8315 10.6256 1.88392 10.5002 1.97723 10.4077C2.07054 10.3152 2.1971 10.2632 2.32907 10.2632H9.99382C10.1258 10.2632 10.2523 10.3152 10.3457 10.4077C10.439 10.5002 10.4914 10.6256 10.4914 10.7564V11.5015C10.4914 11.6323 10.439 11.7578 10.3457 11.8503C10.2523 11.9428 10.1258 11.9948 9.99382 11.9948H2.32907Z" fill="#D6D3D3"/>
<path d="M17.4046 10.9346C16.1001 10.9346 14.8249 11.318 13.7403 12.0364C12.6557 12.7548 11.8103 13.7759 11.3111 14.9705C10.8119 16.1651 10.6813 17.4797 10.9358 18.7479C11.1903 20.0161 11.8185 21.181 12.7409 22.0953C13.6633 23.0097 14.8385 23.6323 16.1179 23.8846C17.3973 24.1369 18.7234 24.0074 19.9286 23.5126C21.1337 23.0177 22.1638 22.1798 22.8885 21.1046C23.6133 20.0295 24.0001 18.7655 24.0001 17.4724C24.0015 16.6135 23.8318 15.7627 23.5009 14.9689C23.1699 14.175 22.6841 13.4537 22.0714 12.8464C21.4587 12.239 20.7311 11.7575 19.9302 11.4294C19.1294 11.1014 18.2711 10.9332 17.4046 10.9346ZM20.2312 18.7317H17.087C16.8558 18.7289 16.635 18.6359 16.4725 18.4729C16.31 18.3099 16.2189 18.0899 16.2189 17.8607V14.3242C16.2053 14.2025 16.2178 14.0793 16.2556 13.9627C16.2933 13.8461 16.3554 13.7387 16.4378 13.6475C16.5202 13.5563 16.6211 13.4834 16.7339 13.4335C16.8466 13.3835 16.9688 13.3577 17.0923 13.3577C17.2158 13.3577 17.3379 13.3835 17.4507 13.4335C17.5635 13.4834 17.6644 13.5563 17.7468 13.6475C17.8292 13.7387 17.8913 13.8461 17.929 13.9627C17.9667 14.0793 17.9792 14.2025 17.9657 14.3242V16.9897H20.2312C20.3466 16.9897 20.4609 17.0122 20.5675 17.056C20.6741 17.0997 20.771 17.1639 20.8526 17.2448C20.9342 17.3257 20.9989 17.4217 21.043 17.5274C21.0872 17.633 21.1099 17.7463 21.1099 17.8607C21.1099 17.9751 21.0872 18.0883 21.043 18.194C20.9989 18.2997 20.9342 18.3957 20.8526 18.4766C20.771 18.5575 20.6741 18.6216 20.5675 18.6654C20.4609 18.7092 20.3466 18.7317 20.2312 18.7317Z" fill="#D6D3D3"/>
</svg>
