<svg width="23" height="32" viewBox="0 0 23 32" fill="none" xmlns="http://www.w3.org/2000/svg">
<g clip-path="url(#clip0_2535_3732)">
<path d="M9.04121 19.7769H0.716946C0.153975 19.7769 0.00481172 19.63 0.00481172 19.076C0.00481172 16.7649 0.00320781 14.4522 0 12.138C0 11.5697 0.149163 11.4229 0.726569 11.4229H17.4906C17.8851 11.4371 18.0728 11.6218 18.0728 12.0148C18.0776 13.0899 18.0776 14.1602 18.0776 15.2352C18.0776 16.5391 18.076 17.8399 18.0728 19.1375C18.0728 19.5922 17.8948 19.7721 17.4328 19.7721L9.04121 19.7769ZM7.2272 15.6093V17.7878C7.2272 17.9441 7.25126 18.0625 7.44854 18.0862C8.13661 18.1714 8.81987 18.214 9.50795 18.0767C10.196 17.9394 10.6916 17.6789 11.0621 17.1343C11.5337 16.4476 11.6059 15.6756 11.4615 14.8847C11.2979 13.9613 10.7253 13.374 9.80146 13.1514C9.02197 12.9573 8.22803 13.0425 7.4341 13.142C7.24644 13.1656 7.22238 13.2982 7.22238 13.4545C7.2272 14.1744 7.2272 14.8942 7.2272 15.6093ZM1.81883 15.5951C1.81883 16.3528 1.82364 17.1058 1.81402 17.8636C1.81402 18.053 1.88619 18.1383 2.08347 18.1335C2.44916 18.1241 2.81966 18.1241 3.18536 18.1335C3.39226 18.1383 3.47887 18.0625 3.47406 17.8541C3.46443 17.461 3.47887 17.068 3.46925 16.6749C3.46443 16.476 3.54623 16.4144 3.7387 16.4097C4.08996 16.4097 4.44602 16.4002 4.79247 16.3718C5.71632 16.2913 6.34665 15.6046 6.33703 14.7143C6.32741 13.8239 5.70669 13.142 4.74435 13.1088C3.86381 13.0757 2.98326 13.0899 2.10272 13.0757C1.88138 13.0709 1.80921 13.1562 1.81402 13.3693C1.82364 14.1128 1.81883 14.8516 1.81883 15.5951ZM14.3774 13.0757H12.7174C12.5441 13.0709 12.4575 13.1278 12.4575 13.3172C12.4623 14.8421 12.4575 16.3623 12.4575 17.8873C12.4575 18.053 12.5201 18.1335 12.6933 18.1335H13.8C13.9925 18.1383 14.0502 18.0435 14.0502 17.8683C14.0454 17.4184 14.0598 16.9685 14.0454 16.5186C14.0358 16.296 14.1031 16.2108 14.3389 16.2202C14.8153 16.2345 15.2868 16.2202 15.7584 16.225C15.9556 16.2297 16.0374 16.1492 16.0278 15.9598C16.0182 15.7703 16.0182 15.5146 16.0278 15.2968C16.0374 15.0789 15.946 15.0031 15.7295 15.0079C15.2579 15.0126 14.7864 14.9937 14.3149 15.0126C14.0646 15.0221 14.0454 14.8942 14.0454 14.7048C14.0454 14.5153 14.0598 14.3922 14.31 14.397C14.8682 14.4112 15.4312 14.397 15.9941 14.4017C16.1866 14.4064 16.2732 14.3354 16.2684 14.1365C16.2636 13.9376 16.254 13.6155 16.2684 13.3598C16.2828 13.1041 16.177 13.0709 15.9653 13.0709C15.436 13.0804 14.9067 13.0757 14.3774 13.0757Z" fill="#4F8640"/>
<path d="M16.1577 28.728C16.2251 28.6143 16.2588 28.5433 16.3021 28.4817C16.4753 28.2497 16.6629 28.0176 16.8265 27.7808C16.9901 27.544 17.1393 27.5061 17.3799 27.5109H21.2533C21.6767 27.5109 21.7201 27.4683 21.7201 27.0468V6.38435C21.7201 5.93918 21.6816 5.9013 21.2244 5.9013C20.0215 5.9013 18.8186 5.90603 17.6157 5.9013C17.1249 5.9013 16.9516 5.73081 16.9516 5.24775V1.6722C16.9516 1.31228 16.9131 1.26966 16.5523 1.26966H3.46922C3.10834 1.26966 3.06984 1.30754 3.06984 1.66747V9.78941C3.06984 10.2346 3.02654 10.2725 2.57424 10.2725H2.06901C1.87173 10.2725 1.76587 10.1825 1.76587 9.98832V0.706092C1.76587 0.156735 1.91984 0.00518884 2.478 0.00518884H17.6108C17.7579 0.00167142 17.9041 0.0285089 18.0401 0.0839734C18.176 0.139438 18.2986 0.2223 18.4 0.327225C19.8307 1.73535 21.2629 3.13715 22.6968 4.53264C22.7952 4.62444 22.8731 4.73548 22.9253 4.85864C22.9775 4.98179 23.0029 5.11434 23 5.24775C22.9903 12.8661 22.9855 20.4829 22.9855 28.0981C22.9855 28.6001 22.8171 28.7659 22.3023 28.7659L16.4608 28.7469C16.379 28.7469 16.3021 28.7375 16.1577 28.728Z" fill="#4F8640"/>
<path d="M9.94577 23.4332C9.94577 22.8459 9.94577 22.2634 9.95058 21.6809C9.95058 21.2216 10.1912 20.9706 10.6579 20.9706C11.8127 20.9642 12.9675 20.9642 14.1223 20.9706C14.5891 20.9706 14.8248 21.2121 14.8297 21.6809C14.8345 22.7749 14.8297 23.8736 14.8297 24.9723C14.8297 25.0576 14.8297 25.1428 14.8345 25.2328C14.8441 25.5264 14.9066 25.5927 15.205 25.5975H16.4801C16.5907 25.5975 16.711 25.5785 16.8169 25.6022C16.9228 25.6259 17.1104 25.659 17.1393 25.7348C17.1682 25.8106 17.1297 26 17.0623 26.0947C16.4801 26.8809 15.8882 27.6575 15.3012 28.4342L12.8905 31.6214L12.8184 31.7162C12.5248 32.0855 12.2506 32.0855 11.9619 31.7162C11.6732 31.3468 11.3364 30.8969 11.0284 30.4848L7.77087 26.1752C7.73126 26.1251 7.69432 26.0729 7.6602 26.019C7.53029 25.7822 7.6169 25.6117 7.89598 25.6022C8.43008 25.5927 8.96899 25.5975 9.50309 25.5975C9.89284 25.5927 9.94577 25.5406 9.94577 25.157V23.4332Z" fill="#4F8640"/>
<path d="M8.53114 28.7276C8.43491 28.7371 8.34348 28.7466 8.25206 28.7466L2.4347 28.7655C1.92947 28.7655 1.76587 28.6093 1.76587 28.1167V21.3492C1.76587 20.9656 1.80436 20.9277 2.19411 20.9277H2.7234C2.97842 20.9325 3.06503 21.0177 3.06984 21.2735C3.07466 21.5292 3.06984 21.9081 3.06984 22.2206V27.0275C3.06984 27.5011 3.08909 27.5153 3.57989 27.5153C4.80206 27.5153 6.02905 27.52 7.25604 27.5058C7.57842 27.5011 7.80938 27.5863 7.9826 27.861C8.15583 28.1357 8.37235 28.3914 8.56963 28.6566C8.55494 28.6793 8.54207 28.703 8.53114 28.7276Z" fill="#4F8640"/>
<path d="M8.76213 15.6003C8.76213 15.2593 8.76694 14.923 8.75732 14.5868C8.75251 14.4116 8.81987 14.35 8.99791 14.3547C9.47426 14.369 9.83514 14.6626 9.92657 15.1219C9.99874 15.5008 9.98912 15.8749 9.83996 16.2349C9.69079 16.5948 9.39728 16.7748 9.01234 16.8268C8.83912 16.8505 8.75251 16.7984 8.75732 16.6137C8.76694 16.2775 8.76213 15.9365 8.76213 15.6003Z" fill="#4F8640"/>
<path d="M3.90219 15.1361C3.83001 15.1361 3.75784 15.1313 3.68566 15.1361C3.53169 15.1455 3.46914 15.0792 3.46914 14.9277C3.47395 14.241 3.40658 14.3594 4.0273 14.3547C4.17019 14.353 4.31264 14.3705 4.45073 14.4067C4.61432 14.4541 4.72499 14.5678 4.71537 14.7525C4.70575 14.9372 4.59508 15.0413 4.42186 15.0792C4.24863 15.1171 4.07541 15.1266 3.90219 15.1503V15.1361Z" fill="#4F8640"/>
</g>
<defs>
<clipPath id="clip0_2535_3732">
<rect width="23" height="32" fill="white"/>
</clipPath>
</defs>
</svg>
