<svg width="17" height="19" viewBox="0 0 17 19" fill="none" xmlns="http://www.w3.org/2000/svg">
<g clip-path="url(#clip0_2180_3980)">
<path d="M4.64825 14.3508C6.32667 15.8096 8.21349 16.2958 10.2901 15.5926C12.3667 14.8893 13.6432 13.314 14.261 11.0596L17 11.8713C15.6156 18.1203 8.36235 21.4597 2.94379 16.8544C2.97356 17.1036 2.99589 17.3246 3.0331 17.5416C3.13359 18.1484 2.7726 18.7472 2.24414 18.8396C1.63753 18.9441 1.1314 18.5623 1.03836 17.9193C0.885774 16.8705 0.744356 15.8216 0.591773 14.7728C0.51362 14.2102 0.431746 13.6516 0.342429 13.093C0.253112 12.5344 0.476405 12.02 0.915547 11.8231C1.06858 11.7549 1.2342 11.726 1.39935 11.7387C2.23297 11.8151 3.06288 11.9115 3.8965 11.9999C4.45101 12.0562 5.00552 12.1245 5.56003 12.1687C6.20758 12.2169 6.62067 13.0448 6.33039 13.7319C6.14431 14.166 5.79821 14.387 5.36279 14.3468L4.65942 14.2865L4.64825 14.3508Z" fill="white"/>
<path d="M12.3853 4.66921C10.7069 3.21046 8.82005 2.72421 6.74343 3.42746C4.66681 4.13072 3.37916 5.71405 2.76511 7.96046L0 7.14066C0.904334 3.85745 2.78371 1.56283 5.79444 0.501913C8.80517 -0.559001 11.5777 0.0839773 14.0935 2.1616C14.0563 1.90039 14.0228 1.65927 13.9893 1.41414C13.9074 0.839477 14.287 0.260796 14.7894 0.180424C15.3997 0.087996 15.8984 0.461727 15.9877 1.08461C16.1515 2.19107 16.3128 3.29887 16.4715 4.408C16.5497 4.93846 16.6316 5.47294 16.6948 6.01143C16.7767 6.68656 16.3301 7.37374 15.5709 7.28533C14.4842 7.15674 13.3901 7.05225 12.2997 6.93973C12.0094 6.9116 11.7229 6.88347 11.4326 6.8473C10.8148 6.77899 10.4315 5.99134 10.6883 5.32425C10.8595 4.87014 11.2167 4.63305 11.6708 4.67323L12.3704 4.73351C12.3741 4.71342 12.3816 4.69333 12.3853 4.66921Z" fill="white"/>
</g>
<defs>
<clipPath id="clip0_2180_3980">
<rect width="17" height="19" fill="white"/>
</clipPath>
</defs>
</svg>
