<svg width="30" height="26" viewBox="0 0 30 26" fill="none" xmlns="http://www.w3.org/2000/svg">
<path d="M13.5044 0.684394C14.3001 -0.211747 15.6999 -0.211747 16.4956 0.684394L20.8775 5.61967C21.0939 5.86335 21.3665 6.05047 21.6717 6.16475L27.8459 8.47684C29.0556 8.92987 29.525 10.3938 28.8042 11.4658L25.3411 16.6162C25.1459 16.9065 25.0302 17.2429 25.0057 17.5918L24.5699 23.785C24.4833 25.0162 23.3132 25.8759 22.1124 25.5905L15.4625 24.0099C15.1584 23.9376 14.8416 23.9376 14.5375 24.0099L7.88761 25.5905C6.68684 25.8759 5.5167 25.0162 5.43007 23.785L4.99431 17.5918C4.96976 17.2429 4.85413 16.9065 4.65895 16.6162L1.19583 11.4658C0.47502 10.3938 0.944379 8.92987 2.15414 8.47684L8.32828 6.16475C8.63346 6.05047 8.90609 5.86335 9.12245 5.61967L13.5044 0.684394Z" fill="#D6D3D3"/>
</svg>
