<svg width="25" height="25" viewBox="0 0 25 25" fill="none" xmlns="http://www.w3.org/2000/svg">
<g clip-path="url(#clip0_2125_3221)">
<path d="M16.2399 23.0658C16.0056 22.5312 15.7532 22.0687 15.609 21.5762C15.4715 21.1386 15.3986 20.6833 15.3927 20.2247C15.3747 15.4193 15.3807 10.6139 15.3807 5.80851C15.3807 4.62518 15.3747 3.44786 15.3867 2.26454C15.3867 2.00024 15.3086 1.92215 15.0443 1.92215C11.1209 1.93417 7.19159 1.92816 3.26825 1.92816C2.55929 1.92816 1.84431 1.93417 1.13535 1.92215C0.976362 1.91536 0.819791 1.8808 0.672721 1.82004C0.174042 1.6098 -0.0722926 1.21937 0.01783 0.798895C0.107953 0.378424 0.540541 0.00600673 1.05124 0H16.1017C16.7145 0 17.081 0.198222 17.2433 0.67876C17.3033 0.852955 17.3033 1.05118 17.3033 1.23739C17.3093 7.52643 17.2973 13.8155 17.3093 20.0985C17.3093 21.3779 17.9522 22.285 19.0938 22.8196C20.6439 23.5404 22.2841 22.5913 22.8188 21.2698C22.9728 20.8919 23.0543 20.4885 23.0592 20.0805C23.0772 17.3594 23.0652 14.6324 23.0712 11.9113C23.0712 11.629 23.0051 11.5269 22.7047 11.5329C21.8876 11.5509 21.0645 11.5509 20.2473 11.5329C19.8688 11.5269 19.5384 11.3827 19.3521 11.0223C19.1659 10.6619 19.2139 10.2775 19.4783 9.98919C19.6405 9.80899 19.9229 9.63479 20.1572 9.62878C21.455 9.59274 22.7588 9.60476 24.0625 9.62278C24.6153 9.62278 24.9878 10.0493 24.9878 10.6619C24.9998 11.9234 24.9998 13.1848 24.9998 14.4462C24.9998 16.3283 24.9978 18.2104 24.9938 20.0925C24.9758 22.7895 22.7948 24.982 20.0971 24.988C14.9722 24.994 9.8472 25.012 4.72223 24.976C2.88974 24.958 1.54991 23.9969 0.612639 22.4531C0.212505 21.7898 0.00257317 21.0293 0.00581363 20.2547C-0.00219727 16.2983 -0.00419999 12.3438 -0.000194542 8.3914C-0.000194542 7.20807 -0.00620271 6.03075 0.00581363 4.84743C0.0118218 4.15065 0.786876 3.6641 1.39971 3.96444C1.78423 4.15065 1.92843 4.48703 1.92843 4.90149C1.92843 6.05478 1.92242 7.20807 1.92242 8.35536C1.92843 12.3018 1.92242 16.2482 1.93444 20.1886C1.94044 21.7564 3.26224 23.0538 4.8484 23.0658C6.86114 23.0778 8.87387 23.0658 10.8866 23.0658H16.2399Z" fill="#D6D3D3"/>
<path d="M8.65766 7.68853H4.84848C4.39186 7.68853 4.06742 7.41222 3.91121 6.93769C3.84935 6.76132 3.84892 6.56923 3.91 6.39259C3.97108 6.21595 4.09007 6.06513 4.24766 5.9646C4.40804 5.85092 4.59797 5.78623 4.79441 5.77839C7.34988 5.76638 9.90135 5.76437 12.4488 5.77238C13.0436 5.77238 13.4402 6.18084 13.4402 6.75148C13.4402 7.32212 13.0256 7.68252 12.4428 7.68853H8.65766Z" fill="#D6D3D3"/>
<path d="M8.65175 15.3772H4.89664C4.2778 15.3772 3.88727 14.9988 3.87525 14.4041C3.86323 13.8095 4.28381 13.4611 4.89063 13.4551H12.4549C12.9115 13.4551 13.248 13.7254 13.3982 14.1879C13.5184 14.5543 13.4162 14.9387 13.0678 15.167C12.8771 15.289 12.6571 15.3575 12.4309 15.3652C11.1692 15.3892 9.90745 15.3772 8.65175 15.3772Z" fill="#D6D3D3"/>
<path d="M8.63371 9.6105H12.4429C12.9356 9.6105 13.3321 9.97691 13.4222 10.4995C13.4943 10.8959 13.248 11.3224 12.8394 11.4726C12.698 11.5193 12.5497 11.5416 12.4008 11.5387H4.99276C4.67433 11.5387 4.39795 11.4666 4.17565 11.2323C3.95335 10.9981 3.7671 10.6136 3.9173 10.2172C4.0675 9.82074 4.39195 9.6105 4.82453 9.60449H8.63371V9.6105Z" fill="#D6D3D3"/>
<path d="M8.63965 19.2213C8.00278 19.2213 7.35991 19.2333 6.72304 19.2153C6.26642 19.2033 5.87589 18.8129 5.79778 18.3323C5.76977 18.1272 5.81373 17.9188 5.92219 17.7424C6.03064 17.5661 6.19688 17.4328 6.39259 17.3653C6.52628 17.3215 6.66654 17.3012 6.80716 17.3052H10.4661C11.0609 17.3052 11.4935 17.7437 11.4935 18.3263C11.4935 18.909 11.085 19.2273 10.4721 19.2333H8.63965V19.2213Z" fill="#D6D3D3"/>
</g>
<defs>
<clipPath id="clip0_2125_3221">
<rect width="25" height="25" fill="white"/>
</clipPath>
</defs>
</svg>
